<svg width="62" height="21" viewBox="0 0 62 21" fill="none" xmlns="http://www.w3.org/2000/svg">
<path d="M2.39864 4.30025H2.47132V14.2627H0.944946V2.93848H3.0528L9.01294 12.9009H8.94026V2.93848H10.4666V14.2627H8.35878L2.39864 4.30025Z" fill="white"/>
<path d="M18.5347 14.2629V12.9012C18.5347 13.0445 18.3166 13.2595 18.0986 13.4745C17.8805 13.7612 17.5898 13.9762 17.1537 14.1913C16.7902 14.4063 16.2815 14.478 15.7727 14.478C15.2639 14.478 14.537 14.3346 13.9555 14.0479C13.4468 13.7612 13.0106 13.3312 12.6472 12.7578C12.3565 12.1844 12.1384 11.5394 12.1384 10.8227C12.1384 10.1059 12.2838 9.38922 12.6472 8.88751C12.938 8.31413 13.3741 7.8841 13.9555 7.59741C14.4643 7.31072 15.1185 7.0957 15.7727 7.0957C16.4268 7.0957 16.7176 7.16738 17.1537 7.38239C17.5898 7.59741 17.8078 7.81243 18.0986 8.02744C18.3166 8.24246 18.462 8.45748 18.5347 8.6725V7.38239H20.0611V14.478H18.6074L18.5347 14.2629ZM13.7375 10.751C13.7375 11.2527 13.8829 11.6827 14.1009 12.0411C14.319 12.3995 14.6097 12.6861 14.9731 12.9012C15.3366 13.1162 15.7 13.1879 16.1361 13.1879C16.5722 13.1879 17.0083 13.1162 17.299 12.9012C17.5898 12.6861 17.9532 12.3995 18.0986 12.0411C18.3166 11.6827 18.3893 11.2527 18.3893 10.751C18.3893 10.2493 18.3166 9.81925 18.0986 9.46089C17.8805 9.10253 17.5898 8.81584 17.299 8.60082C17.0083 8.38581 16.5722 8.31413 16.1361 8.31413C15.7 8.31413 15.3366 8.38581 14.9731 8.60082C14.6097 8.81584 14.319 9.10253 14.1009 9.46089C13.8829 9.81925 13.7375 10.2493 13.7375 10.751Z" fill="white"/>
<path d="M21.3693 7.23896H22.7503V4.37207H24.2767V7.23896H26.0938V8.52907H24.2767V12.041C24.2767 12.471 24.3494 12.7577 24.4948 12.9728C24.6401 13.1878 24.8582 13.2594 25.0762 13.2594C25.2943 13.2594 25.4397 13.2594 25.585 13.1161C25.7304 13.0444 25.8031 12.9728 25.8031 12.9728L26.3846 14.0478C26.3846 14.0478 26.2392 14.1195 26.0938 14.1912C25.9484 14.2629 25.7304 14.3345 25.5123 14.4062C25.2943 14.4062 25.0035 14.4779 24.6401 14.4779C24.0586 14.4779 23.6225 14.3345 23.2591 13.9762C22.8957 13.6178 22.6776 13.1161 22.6776 12.3994V8.52907H21.2966V7.23896H21.3693Z" fill="white"/>
<path d="M29.2193 10.7511C29.2193 11.4678 29.3647 12.1129 29.7281 12.5429C30.0188 12.9729 30.5276 13.188 31.1818 13.188C31.836 13.188 32.3448 12.9729 32.7082 12.5429C32.9989 12.1129 33.217 11.5395 33.217 10.7511V7.16748H34.7433V10.9661C34.7433 11.6828 34.598 12.2562 34.3072 12.7579C34.0165 13.2596 33.6531 13.6897 33.1443 13.9764C32.6355 14.263 31.9813 14.4064 31.2545 14.4064C30.5276 14.4064 29.8735 14.263 29.3647 13.9764C28.8559 13.6897 28.4925 13.2596 28.2017 12.7579C27.911 12.2562 27.7656 11.6112 27.7656 10.9661V7.16748H29.292V10.7511H29.2193Z" fill="white"/>
<path d="M38.2322 14.2627H36.7058V7.16717H38.2322V8.3856C38.2322 8.24225 38.3776 8.02723 38.5229 7.81222C38.741 7.5972 38.959 7.38218 39.3225 7.23884C39.6859 7.09549 40.0493 6.95215 40.4854 6.95215C40.9215 6.95215 41.1396 6.95215 41.3576 7.09549C41.5757 7.16717 41.7937 7.23884 41.8664 7.38218L41.2123 8.60061C41.1396 8.52894 40.9942 8.45727 40.7762 8.3856C40.5581 8.31392 40.34 8.24225 40.0493 8.24225C39.7586 8.24225 39.3225 8.3856 39.0317 8.60061C38.741 8.81563 38.5229 9.10232 38.3776 9.46068C38.2322 9.81904 38.1595 10.1057 38.1595 10.3924V14.2627H38.2322Z" fill="white"/>
<path d="M44.4104 14.2629H42.884V2.43701H44.4104V14.2629Z" fill="white"/>
<path d="M49.571 12.9013L51.9696 7.23915H53.496L48.6988 17.8467H47.1724L48.7715 14.263L45.7914 7.16748H47.3178L49.4983 12.8296L49.571 12.9013Z" fill="white"/>
<path d="M55.3858 0.931798C55.3858 0.931798 55.3131 4.22873 53.4233 5.5905C51.5335 6.95228 48.6261 5.87719 48.6261 5.87719C48.6261 5.87719 48.6988 2.58026 50.5886 1.21849C52.4784 -0.143288 55.3858 0.931798 55.3858 0.931798Z" fill="url(#paint0_linear_2131_1598)"/>
<path d="M47.6812 6.23575C52.1149 4.58729 52.9145 2.50879 52.9145 2.50879L47.6812 6.23575Z" fill="url(#paint1_linear_2131_1598)"/>
<defs>
<linearGradient id="paint0_linear_2131_1598" x1="46.3744" y1="3.35032" x2="52.7171" y2="3.17065" gradientUnits="userSpaceOnUse">
<stop stop-color="#EAEBA0" stop-opacity="0.9"/>
<stop offset="0.2" stop-color="#92B668"/>
<stop offset="0.4" stop-color="#458837"/>
<stop offset="0.5" stop-color="#287624"/>
<stop offset="0.6" stop-color="#1B6629"/>
<stop offset="0.8" stop-color="#074E33"/>
<stop offset="0.9" stop-color="#004537"/>
</linearGradient>
<linearGradient id="paint1_linear_2131_1598" x1="47.8533" y1="4.12792" x2="52.7767" y2="4.55597" gradientUnits="userSpaceOnUse">
<stop stop-color="#EAEBA0" stop-opacity="0.9"/>
<stop offset="0.2" stop-color="#92B668"/>
<stop offset="0.4" stop-color="#458837"/>
<stop offset="0.5" stop-color="#287624"/>
<stop offset="0.6" stop-color="#1B6629"/>
<stop offset="0.8" stop-color="#074E33"/>
<stop offset="0.9" stop-color="#004537"/>
</linearGradient>
</defs>
</svg>
