<svg width="247" height="85" viewBox="0 0 247 85" fill="none" xmlns="http://www.w3.org/2000/svg">
<path d="M9.5557 17.406H9.84527V57.7302H3.76437V11.894H12.1618L35.9062 52.2183H35.6167V11.894H41.6975V57.7302H33.3001L9.5557 17.406Z" fill="white"/>
<path d="M73.8394 57.73V52.218C73.8394 52.7982 72.9707 53.6685 72.102 54.5388C71.2333 55.6992 70.075 56.5696 68.3376 57.4399C66.8898 58.3102 64.8628 58.6003 62.8359 58.6003C60.8089 58.6003 57.9133 58.0201 55.5967 56.8597C53.5698 55.6993 51.8324 53.9586 50.3845 51.6378C49.2263 49.317 48.3576 46.7061 48.3576 43.8051C48.3576 40.904 48.9367 38.003 50.3845 35.9723C51.5428 33.6515 53.2802 31.9109 55.5967 30.7504C57.6237 29.59 60.2298 28.7197 62.8359 28.7197C65.442 28.7197 66.6002 29.0098 68.3376 29.8801C70.075 30.7504 70.9437 31.6208 72.102 32.4911C72.9707 33.3614 73.5498 34.2317 73.8394 35.102V29.8801H79.9203V58.6003H74.129L73.8394 57.73ZM54.728 43.5149C54.728 45.5457 55.3072 47.2863 56.1759 48.7368C57.0446 50.1873 58.2028 51.3477 59.6507 52.218C61.0985 53.0883 62.5463 53.3784 64.2837 53.3784C66.0211 53.3784 67.7585 53.0883 68.9168 52.218C70.075 51.3477 71.5229 50.1873 72.102 48.7368C72.9707 47.2863 73.2603 45.5457 73.2603 43.5149C73.2603 41.4842 72.9707 39.7436 72.102 38.2931C71.2333 36.8426 70.075 35.6822 68.9168 34.8119C67.7585 33.9416 66.0211 33.6515 64.2837 33.6515C62.5463 33.6515 61.0985 33.9416 59.6507 34.8119C58.2028 35.6822 57.0446 36.8426 56.1759 38.2931C55.3072 39.7436 54.728 41.4842 54.728 43.5149Z" fill="white"/>
<path d="M85.1325 29.3004H90.6342V17.6963H96.7151V29.3004H103.954V34.5222H96.7151V48.7372C96.7151 50.4779 97.0047 51.6383 97.5838 52.5086C98.1629 53.3789 99.0316 53.669 99.9003 53.669C100.769 53.669 101.348 53.669 101.927 53.0888C102.506 52.7987 102.796 52.5086 102.796 52.5086L105.113 56.8601C105.113 56.8601 104.533 57.1502 103.954 57.4403C103.375 57.7304 102.506 58.0205 101.638 58.3106C100.769 58.3106 99.6108 58.6007 98.1629 58.6007C95.8464 58.6007 94.109 58.0205 92.6612 56.57C91.2134 55.1195 90.3447 53.0888 90.3447 50.1878V34.5222H84.8429V29.3004H85.1325Z" fill="white"/>
<path d="M116.406 43.5154C116.406 46.4164 116.985 49.0273 118.433 50.7679C119.591 52.5085 121.618 53.3789 124.224 53.3789C126.83 53.3789 128.857 52.5085 130.305 50.7679C131.463 49.0273 132.332 46.7065 132.332 43.5154V29.0103H138.413V44.3857C138.413 47.2867 137.834 49.6075 136.675 51.6382C135.517 53.669 134.069 55.4096 132.042 56.57C130.015 57.7304 127.409 58.3106 124.513 58.3106C121.618 58.3106 119.012 57.7304 116.985 56.57C114.958 55.4096 113.51 53.669 112.352 51.6382C111.193 49.6075 110.614 46.9966 110.614 44.3857V29.0103H116.695V43.5154H116.406Z" fill="white"/>
<path d="M152.312 57.7301H146.231V29.01H152.312V33.9417C152.312 33.3615 152.891 32.4912 153.47 31.6209C154.339 30.7506 155.208 29.8803 156.655 29.3001C158.103 28.7199 159.551 28.1396 161.288 28.1396C163.026 28.1396 163.895 28.1396 164.763 28.7199C165.632 29.01 166.501 29.3001 166.79 29.8803L164.184 34.812C163.894 34.5219 163.315 34.2318 162.447 33.9417C161.578 33.6516 160.709 33.3615 159.551 33.3615C158.393 33.3615 156.655 33.9417 155.497 34.812C154.339 35.6823 153.47 36.8427 152.891 38.2932C152.312 39.7437 152.022 40.9042 152.022 42.0646V57.7301H152.312Z" fill="white"/>
<path d="M176.925 57.7302H170.844V9.86328H176.925V57.7302Z" fill="white"/>
<path d="M197.484 52.2184L207.04 29.3004H213.121L194.009 72.2355H187.929L194.299 57.7304L182.427 29.0103H188.508L197.195 51.9283L197.484 52.2184Z" fill="white"/>
<path d="M220.649 3.77128C220.649 3.77128 220.36 17.116 212.831 22.6279C205.302 28.1399 193.72 23.7883 193.72 23.7883C193.72 23.7883 194.009 10.4436 201.538 4.93169C209.067 -0.580253 220.649 3.77128 220.649 3.77128Z" fill="url(#paint0_linear_2115_2439)"/>
<path d="M189.955 25.2386C207.619 18.5663 210.804 10.1533 210.804 10.1533Z" fill="url(#paint1_linear_2115_2439)"/>
<defs>
<linearGradient id="paint0_linear_2115_2439" x1="184.749" y1="13.5606" x2="210.019" y2="12.856" gradientUnits="userSpaceOnUse">
<stop stop-color="#EAEBA0" stop-opacity="0.9"/>
<stop offset="0.2" stop-color="#92B668"/>
<stop offset="0.4" stop-color="#458837"/>
<stop offset="0.5" stop-color="#287624"/>
<stop offset="0.6" stop-color="#1B6629"/>
<stop offset="0.8" stop-color="#074E33"/>
<stop offset="0.9" stop-color="#004537"/>
</linearGradient>
<linearGradient id="paint1_linear_2115_2439" x1="190.641" y1="16.7069" x2="210.26" y2="18.3858" gradientUnits="userSpaceOnUse">
<stop stop-color="#EAEBA0" stop-opacity="0.9"/>
<stop offset="0.2" stop-color="#92B668"/>
<stop offset="0.4" stop-color="#458837"/>
<stop offset="0.5" stop-color="#287624"/>
<stop offset="0.6" stop-color="#1B6629"/>
<stop offset="0.8" stop-color="#074E33"/>
<stop offset="0.9" stop-color="#004537"/>
</linearGradient>
</defs>
</svg>
