<svg width="18" height="18" viewBox="0 0 18 18" fill="none" xmlns="http://www.w3.org/2000/svg">
<g clip-path="url(#clip0_1944_8339)">
<path d="M3.375 9C4.41053 9 5.25 8.16053 5.25 7.125C5.25 6.08947 4.41053 5.25 3.375 5.25C2.33947 5.25 1.5 6.08947 1.5 7.125C1.5 8.16053 2.33947 9 3.375 9Z" fill="#323232"/>
<path d="M6.75 6C7.78553 6 8.625 5.16053 8.625 4.125C8.625 3.08947 7.78553 2.25 6.75 2.25C5.71447 2.25 4.875 3.08947 4.875 4.125C4.875 5.16053 5.71447 6 6.75 6Z" fill="#323232"/>
<path d="M11.25 6C12.2855 6 13.125 5.16053 13.125 4.125C13.125 3.08947 12.2855 2.25 11.25 2.25C10.2145 2.25 9.375 3.08947 9.375 4.125C9.375 5.16053 10.2145 6 11.25 6Z" fill="#323232"/>
<path d="M14.625 9C15.6605 9 16.5 8.16053 16.5 7.125C16.5 6.08947 15.6605 5.25 14.625 5.25C13.5895 5.25 12.75 6.08947 12.75 7.125C12.75 8.16053 13.5895 9 14.625 9Z" fill="#323232"/>
<path d="M13.006 11.145C12.3535 10.38 11.806 9.7275 11.146 8.9625C10.801 8.5575 10.3585 8.1525 9.83346 7.9725C9.75096 7.9425 9.66846 7.92 9.58596 7.905C9.39846 7.875 9.19596 7.875 9.00096 7.875C8.80596 7.875 8.60346 7.875 8.40846 7.9125C8.32596 7.9275 8.24346 7.95 8.16096 7.98C7.63596 8.16 7.20096 8.565 6.84846 8.97C6.19596 9.735 5.64846 10.3875 4.98846 11.1525C4.00596 12.135 2.79846 13.2225 3.02346 14.745C3.24096 15.51 3.78846 16.2675 4.77096 16.485C5.31846 16.5975 7.06596 16.155 8.92596 16.155H9.06096C10.921 16.155 12.6685 16.59 13.216 16.485C14.1985 16.2675 14.746 15.5025 14.9635 14.745C15.196 13.215 13.9885 12.1275 13.006 11.145Z" fill="#323232"/>
</g>
<defs>
<clipPath id="clip0_1944_8339">
<rect width="18" height="18" fill="white"/>
</clipPath>
</defs>
</svg>
